<?xml version="1.0" standalone="no"?>
<!DOCTYPE svg PUBLIC "-//W3C//DTD SVG 20010904//EN"
 "http://www.w3.org/TR/2001/REC-SVG-20010904/DTD/svg10.dtd">
<svg version="1.0" xmlns="http://www.w3.org/2000/svg"
 width="500.000000pt" height="500.000000pt" viewBox="0 0 500.000000 500.000000"
 preserveAspectRatio="xMidYMid meet">

<g transform="translate(0.000000,500.000000) scale(0.100000,-0.100000)"
fill="#000000" stroke="none">
<path d="M2265 4829 c-121 -38 -635 -198 -1142 -356 l-923 -287 0 -1566 0
-1567 327 -136 c181 -75 600 -249 933 -387 333 -139 703 -292 823 -341 l217
-90 243 100 c133 54 645 266 1137 471 492 205 901 375 908 377 9 4 12 328 12
1573 0 1485 -1 1569 -17 1574 -10 3 -416 129 -903 280 -1225 380 -1376 426
-1386 425 -5 -1 -108 -32 -229 -70z m1168 -426 c504 -158 917 -290 917 -293 0
-7 -1829 -580 -1850 -580 -8 0 -316 95 -685 210 -369 116 -781 245 -917 288
-137 42 -248 79 -248 82 0 7 1820 578 1845 579 11 1 433 -128 938 -286z
m-2029 -744 c545 -171 992 -312 994 -313 1 -2 1 -676 0 -1498 l-3 -1495 -780
326 c-429 179 -878 367 -997 416 l-218 90 0 1393 c0 765 3 1392 6 1392 4 0
453 -140 998 -311z m3196 -1081 l0 -1393 -982 -410 c-539 -225 -989 -413 -999
-417 -18 -7 -19 35 -19 1490 l0 1498 988 311 c543 171 993 311 1000 312 9 1
12 -284 12 -1391z"/>
<path d="M1165 3181 c-188 -49 -282 -251 -230 -493 44 -208 163 -367 434 -577
236 -183 301 -275 301 -422 0 -83 -25 -140 -70 -164 -68 -35 -187 -9 -299 66
-102 68 -166 178 -179 308 l-7 64 -113 40 c-62 22 -116 37 -119 33 -4 -4 -2
-46 4 -94 40 -315 298 -609 603 -687 98 -26 222 -17 283 18 93 55 137 147 144
302 14 291 -116 507 -462 769 -213 162 -285 256 -293 382 -12 186 113 251 305
157 109 -54 186 -171 201 -307 l7 -59 118 -40 c65 -21 121 -36 125 -33 10 11
-17 169 -43 246 -95 280 -341 482 -600 495 -44 2 -93 1 -110 -4z"/>
<path d="M4244 3383 l-102 -34 -16 -127 c-9 -70 -52 -392 -95 -717 -43 -324
-80 -581 -84 -570 -3 11 -56 299 -118 640 -62 341 -113 621 -114 623 -2 3
-178 -58 -183 -63 -2 -2 -59 -336 -126 -742 -75 -448 -125 -728 -129 -713 -4
14 -50 311 -103 660 -52 349 -97 636 -98 638 -4 3 -209 -70 -219 -78 -6 -5
289 -1765 298 -1778 5 -7 209 86 216 98 5 8 60 323 124 700 117 687 125 733
130 728 1 -2 55 -280 120 -618 65 -338 118 -616 119 -617 2 -2 198 77 204 82
5 4 283 1908 280 1915 -2 4 -49 -8 -104 -27z"/>
</g>
</svg>
